<?xml version="1.0" standalone="no"?>
<!DOCTYPE svg PUBLIC "-//W3C//DTD SVG 20010904//EN"
 "http://www.w3.org/TR/2001/REC-SVG-20010904/DTD/svg10.dtd">
<svg version="1.0" xmlns="http://www.w3.org/2000/svg"
 width="284.000000pt" height="177.000000pt" viewBox="0 0 284.000000 177.000000"
 preserveAspectRatio="xMidYMid meet">
<metadata>
Created by potrace 1.15, written by Peter Selinger 2001-2017
</metadata>
<g transform="translate(0.000000,177.000000) scale(0.100000,-0.100000)"
fill="#000000" stroke="none">
<path d="M0 885 l0 -885 1420 0 1420 0 0 885 0 885 -617 0 c-517 -1 -622 -3
-643 -15 -14 -8 -41 -14 -60 -13 -19 0 -27 2 -17 5 73 19 -56 23 -743 23
l-760 0 0 -885z m887 718 c38 -27 53 -29 53 -7 0 8 7 23 16 31 14 15 19 14 52
-5 25 -14 39 -31 45 -52 4 -17 11 -28 16 -26 11 7 46 -32 38 -41 -4 -3 -16 2
-27 12 -16 14 -23 16 -32 7 -9 -9 -9 -12 0 -12 7 0 12 -5 12 -11 0 -6 -10 -9
-22 -7 -13 2 -22 9 -21 16 2 6 -3 12 -10 12 -16 -1 -57 -35 -57 -49 0 -14 -17
-14 -25 -1 -4 6 -28 8 -59 4 -60 -7 -90 12 -37 22 17 4 31 10 31 15 0 13 -24
11 -38 -3 -10 -10 -14 -10 -21 0 -6 9 -19 11 -45 7 -33 -7 -36 -5 -35 16 0 13
3 18 6 11 4 -10 8 -10 19 -1 7 6 20 9 28 6 8 -3 16 2 19 14 4 16 9 18 24 11
10 -6 31 -8 46 -5 l27 5 -25 24 c-14 13 -25 29 -25 36 0 8 3 9 8 3 4 -5 21
-20 39 -32z m535 -15 c21 -13 38 -26 38 -30 0 -13 34 -48 45 -48 15 0 57 -58
47 -64 -4 -2 -35 -7 -68 -10 -47 -4 -67 -2 -94 14 -123 67 -116 65 -145 46
-29 -19 -50 -12 -23 8 9 6 26 30 37 53 35 67 72 90 106 67 11 -8 37 -24 57
-36z m-274 -110 c26 -6 51 -17 55 -25 4 -7 14 -13 20 -13 7 0 30 -9 52 -20 22
-11 44 -20 51 -20 6 0 17 -6 23 -14 9 -11 8 -17 -4 -29 -8 -9 -15 -20 -15 -25
0 -11 24 -22 47 -22 13 0 13 3 3 15 -7 8 -16 12 -21 9 -5 -3 -6 2 -3 10 5 12
12 11 52 -5 26 -11 61 -27 77 -35 35 -17 59 -66 42 -83 -16 -16 -97 -13 -127
4 -29 16 -50 19 -50 6 0 -5 -13 -23 -30 -41 -34 -37 -31 -50 11 -50 46 0 67
-16 79 -59 18 -69 -10 -103 -78 -94 l-43 6 7 -29 c3 -16 15 -37 26 -46 18 -16
19 -18 2 -18 -9 0 -25 -7 -35 -16 -17 -15 -18 -15 -24 8 -4 14 -5 38 -3 54 3
26 0 29 -24 26 -22 -3 -30 3 -43 29 -20 38 -10 69 30 95 14 9 25 24 25 34 0
27 -34 51 -64 46 -56 -10 -62 -15 -63 -52 -1 -19 -3 -38 -6 -41 -10 -9 -47 8
-47 22 0 9 -6 12 -15 9 -20 -8 -19 5 3 23 15 13 14 13 -8 1 -23 -14 -61 -26
-101 -34 -10 -2 -19 5 -22 16 -3 14 -10 18 -21 14 -9 -3 -23 -1 -31 6 -8 7
-24 10 -34 7 -32 -8 -64 21 -59 54 4 23 1 29 -13 29 -27 0 -32 16 -15 49 13
24 13 31 2 40 -11 9 -20 6 -42 -14 -16 -15 -41 -29 -56 -32 -14 -3 -36 -14
-48 -25 -18 -17 -24 -18 -31 -7 -7 11 -9 10 -9 -3 0 -18 -14 -22 -60 -18 -52
4 -44 44 15 79 32 18 34 23 23 41 -10 16 -10 22 1 32 11 11 13 11 6 0 -10 -19
22 -40 53 -34 24 5 23 5 -9 19 -33 14 -33 15 -14 29 28 21 76 12 132 -25 26
-17 53 -31 60 -31 22 0 104 60 98 71 -4 5 1 9 9 9 8 0 18 9 21 20 4 12 15 20
28 20 12 1 51 9 87 20 80 23 72 22 128 8z m1047 -244 c14 -15 25 -33 25 -40 0
-8 5 -14 10 -14 6 0 10 -9 10 -20 0 -11 5 -20 11 -20 20 0 48 -44 49 -75 0
-17 5 -36 12 -43 6 -6 12 -41 12 -77 0 -84 -18 -106 -101 -116 -57 -7 -59 -6
-91 27 -24 26 -34 31 -38 20 -3 -9 -12 -12 -21 -9 -13 5 -15 1 -10 -17 7 -29
-14 -83 -41 -101 -19 -14 -22 -19 -22 -38 0 -17 -91 -41 -132 -35 -34 6 -38 9
-32 28 9 29 8 28 61 32 40 3 53 9 75 36 15 18 28 38 28 45 0 6 9 18 21 26 28
20 12 50 -41 77 -49 25 -74 61 -66 95 6 25 133 158 161 169 8 3 15 11 15 19 0
10 62 56 78 57 2 0 14 -12 27 -26z m-1629 -373 c2 -93 4 -95 79 -88 42 4 65 2
67 -5 2 -6 17 -11 33 -11 17 0 24 -2 17 -4 -8 -3 -5 -11 10 -24 28 -23 16 -25
-17 -3 -35 23 -111 29 -118 10 -5 -12 -2 -13 18 -6 18 7 24 6 22 -2 -1 -7 4
-12 12 -13 20 0 26 -25 7 -25 -9 0 -16 4 -16 9 0 6 -9 9 -19 8 -11 0 -17 -6
-14 -14 3 -7 9 -10 14 -7 5 3 6 -2 3 -10 -3 -9 -1 -16 5 -16 6 0 18 -14 26
-30 9 -17 20 -28 25 -25 5 3 20 -3 32 -14 12 -12 25 -21 29 -21 9 0 18 -61 12
-78 -6 -13 -53 -9 -62 6 -3 5 -20 13 -38 16 -27 6 -44 23 -47 48 -1 3 -5 10
-10 15 -5 5 -7 -1 -3 -14 7 -30 -11 -40 -31 -18 -12 12 -13 19 -5 22 17 6 4
33 -17 33 -13 0 -19 11 -23 51 -4 32 -2 58 6 69 11 18 12 18 31 2 19 -17 19
-17 0 10 -10 15 -24 28 -31 28 -18 0 -55 -109 -55 -165 0 -33 -3 -43 -7 -30
-7 17 -8 16 -13 -9 -12 -63 27 -128 95 -157 15 -6 27 -18 27 -25 0 -8 4 -14
10 -14 5 0 7 -7 4 -15 -4 -8 1 -17 10 -21 9 -3 16 -15 16 -25 0 -10 5 -19 10
-19 6 0 10 -8 10 -19 0 -10 9 -30 20 -44 27 -34 19 -107 -12 -107 -16 0 -18
-5 -13 -34 l7 -33 -43 1 c-38 1 -45 4 -53 29 -12 33 2 47 40 39 33 -6 32 23 0
49 -14 11 -27 28 -31 38 -3 10 -17 23 -32 30 -19 9 -23 15 -14 20 10 6 9 15
-3 42 -8 19 -17 42 -20 53 -5 16 -9 16 -23 5 -15 -13 -16 -9 -10 50 5 64 -5
117 -22 107 -4 -3 -9 -32 -9 -65 0 -33 -7 -70 -14 -82 -23 -40 -42 -59 -58
-59 -9 0 -21 -5 -27 -11 -14 -14 -53 5 -53 26 0 17 -58 24 -82 10 -12 -7 -22
-4 -37 9 -31 28 -26 41 24 67 43 23 57 39 34 39 -6 0 -8 9 -4 23 3 12 3 18 -2
12 -12 -15 -30 -16 -29 -2 0 16 36 51 36 35 0 -6 6 -4 13 6 11 15 22 17 63 12
95 -13 136 -12 144 4 10 19 68 194 80 240 11 39 13 110 4 110 -3 0 -14 -5 -25
-10 -15 -8 -23 -7 -35 5 -14 13 -13 15 13 15 21 0 68 21 68 30 0 0 0 -27 1
-59z m1048 23 c9 -8 16 -19 16 -23 0 -4 16 -15 35 -24 37 -17 45 -34 21 -43
-8 -3 -12 -13 -9 -25 3 -11 0 -19 -6 -19 -7 0 -9 -4 -6 -10 3 -5 2 -10 -4 -10
-5 0 -12 4 -15 9 -3 5 -19 11 -35 13 l-29 4 18 -50 c9 -28 32 -85 49 -127 l32
-77 -26 -37 c-14 -21 -25 -46 -25 -56 0 -19 25 -49 41 -49 15 0 39 65 39 107
0 21 3 49 7 61 6 23 7 23 44 -18 36 -40 41 -42 76 -35 39 8 72 9 79 2 2 -2 5
-14 6 -28 2 -13 11 -27 21 -31 9 -4 17 -18 17 -31 0 -19 7 -26 30 -31 31 -6
31 -6 15 -36 -9 -18 -33 -37 -60 -50 -54 -25 -58 -25 -45 -1 14 28 12 36 -5
21 -12 -10 -15 -10 -15 3 0 8 7 20 15 27 8 7 15 16 15 21 0 17 -27 9 -54 -16
-28 -26 -46 -34 -28 -12 8 9 1 18 -27 34 l-38 22 -17 -30 c-26 -44 -53 -55
-74 -30 -9 12 -29 22 -44 23 -19 2 -28 8 -28 20 0 10 -7 18 -15 18 -8 0 -15 7
-15 15 0 8 -5 59 -11 114 -8 75 -8 105 1 121 10 18 9 24 -1 31 -8 4 -16 4 -19
-1 -3 -5 -18 -12 -33 -15 -15 -4 -34 -16 -41 -27 -8 -11 -19 -17 -25 -14 -6 4
-19 -2 -29 -12 -16 -16 -25 -17 -76 -8 -46 8 -58 15 -62 33 -7 28 2 43 27 43
28 0 59 18 59 35 0 8 10 21 23 30 12 8 21 18 19 20 -2 3 -2 11 1 18 2 7 22 -8
46 -35 42 -46 64 -52 75 -22 10 27 -51 114 -81 114 -15 0 -16 9 -4 29 8 12 13
12 33 -2 13 -10 33 -24 46 -33 27 -20 42 -11 24 14 -25 35 -25 45 -3 64 28 22
54 23 75 2z m-527 -141 c11 -10 25 -37 32 -61 15 -54 -4 -94 -40 -85 -16 4
-20 2 -17 -8 3 -8 13 -13 22 -11 10 2 20 -7 25 -21 5 -14 23 -31 40 -38 23
-10 31 -20 31 -40 0 -34 -16 -46 -67 -55 -50 -8 -83 8 -76 36 3 11 9 20 14 20
5 0 0 9 -11 20 -11 11 -20 25 -20 30 0 6 -8 5 -20 -2 -17 -11 -22 -10 -30 2
-15 23 -12 30 10 30 23 0 25 15 8 53 -14 28 -34 29 -94 7 -35 -14 -58 -5 -73
26 -6 15 -7 23 -1 19 5 -3 10 1 10 9 0 9 11 18 25 22 14 3 22 10 19 15 -3 5
-1 9 5 9 5 0 11 -6 14 -12 3 -10 9 -8 24 5 11 9 28 17 39 17 11 0 24 4 30 9 8
8 33 15 70 20 7 0 21 -7 31 -16z"/>
</g>
</svg>
